<svg xmlns="http://www.w3.org/2000/svg" width="18" height="25.031" viewBox="0 0 18 25.031"><defs><style>.cls-1{fill:#fff;fill-rule:evenodd}</style></defs><path id="Address.svg" class="cls-1" d="M369.5 43.734a9.157 9.157.0 0 0-8.993 9.294c0 4.786 7.307 13.709 8.139 14.712l.854 1.026.853-1.026c.833-1 8.14-9.925 8.14-14.712A9.157 9.157.0 0 0 369.5 43.734zm0 21.431c-2.453-3.12-6.743-9.19-6.743-12.137a6.747 6.747.0 1 1 13.486.0C376.243 55.973 371.953 62.045 369.5 65.165zm-.021-16.822a4.653 4.653.0 1 0 4.5 4.651A4.582 4.582.0 0 0 369.479 48.343zm0 6.976a2.327 2.327.0 1 1 2.25-2.325A2.291 2.291.0 0 1 369.479 55.319z" transform="translate(-360.5 -43.719)"/></svg>