<svg xmlns="http://www.w3.org/2000/svg" width="669" height="373" viewBox="0 0 669 373">
  <defs>
    <style>
      .cls-1 {
        fill: #cdccda;
        fill-rule: evenodd;
      }
    </style>
  </defs>
  <path id="Bg.svg" class="cls-1" d="M1069.91,801.186l-47.04,3.261,16.94,9.294L934.079,876.173l-97.886-66.6L739.875,893.92,652.064,849.3,550.358,920.564l8.6,9,94.93-65.414,87.849,44.644,95.412-83.551,96.459,65.627,113.2-66.842,2.45,19.432,20.65-42.271m-522.38-15.72a7.327,7.327,0,1,0,2.682,10.009A7.336,7.336,0,0,0,547.53,785.466Zm0.95,9.01a5.331,5.331,0,1,1-1.95-7.278A5.334,5.334,0,0,1,548.48,794.476Zm505.7,56.705a7.323,7.323,0,1,0-7.09,9.227,7.353,7.353,0,0,0,6.36-3.667A7.257,7.257,0,0,0,1054.18,851.181Zm-2.46,4.56a5.329,5.329,0,1,1-6-7.81,5.4,5.4,0,0,1,1.39-.184A5.332,5.332,0,0,1,1051.72,855.741ZM735.847,1136.35a7.325,7.325,0,1,0,7.327,7.32A7.33,7.33,0,0,0,735.847,1136.35Zm0,12.65a5.33,5.33,0,1,1,5.328-5.33A5.334,5.334,0,0,1,735.847,1149ZM496.393,916.449a7.327,7.327,0,1,0,7.328,7.327A7.335,7.335,0,0,0,496.393,916.449Zm0,12.655a5.328,5.328,0,1,1,5.329-5.328A5.335,5.335,0,0,1,496.393,929.1ZM940.862,1127.93a7.325,7.325,0,1,0,7.328,7.33A7.337,7.337,0,0,0,940.862,1127.93Zm0,12.65a5.325,5.325,0,1,1,5.328-5.32A5.332,5.332,0,0,1,940.862,1140.58Zm9.426-344.523a7.327,7.327,0,1,0,7.327,7.327A7.335,7.335,0,0,0,950.288,796.057Zm0,12.655a5.328,5.328,0,1,1,5.328-5.328A5.333,5.333,0,0,1,950.288,808.712ZM969.433,1121.1a2.435,2.435,0,1,0,2.437,2.43A2.434,2.434,0,0,0,969.433,1121.1ZM987.2,778a2.437,2.437,0,1,0,2.437,2.437A2.437,2.437,0,0,0,987.2,778ZM563.546,825.794a2.437,2.437,0,1,0,2.436,2.436A2.437,2.437,0,0,0,563.546,825.794ZM491.065,882.53a2.437,2.437,0,1,0,2.437,2.436A2.436,2.436,0,0,0,491.065,882.53Zm70.6,252.37a2.435,2.435,0,1,0,2.436,2.44A2.437,2.437,0,0,0,561.661,1134.9ZM630.93,842.19H625.6v-5.328a1,1,0,1,0-2,0v5.328h-5.328a1,1,0,0,0,0,2H623.6v5.328a1,1,0,1,0,2,0v-5.328h5.329A1,1,0,0,0,630.93,842.19ZM1079,886.86a1,1,0,1,0,0-2h-5.33v-5.328a1,1,0,0,0-2,0v5.328h-5.33a1,1,0,0,0,0,2h5.33v5.329a1,1,0,0,0,2,0V886.86H1079ZM789.786,1122.63h-5.329v-5.33a1,1,0,1,0-2,0v5.33H777.13a1,1,0,0,0,0,2h5.328v5.33a1,1,0,1,0,2,0v-5.33h5.329A1,1,0,0,0,789.786,1122.63Zm-256.371-17.11h-5.328v-5.32a1,1,0,1,0-2,0v5.32H520.76a1,1,0,0,0,0,2h5.328v5.33a1,1,0,1,0,2,0v-5.33h5.328A1,1,0,0,0,533.415,1105.52Zm534.325-4.47h-5.33v-5.33a1,1,0,0,0-2,0v5.33h-5.32a1,1,0,1,0,0,1.99h5.32v5.33a1,1,0,0,0,2,0v-5.33h5.33A1,1,0,1,0,1067.74,1101.05Zm-495.564,8.5h-4.253l0.015,16.9,4.254-.01-0.016-16.89m6.727-11.56-4.253.01,0.025,28.44h4.254l-0.026-28.45m6.743,5.6h-4.254l0.021,22.85,4.254-.01-0.021-22.84m6.719-20.44-4.254.01,0.039,43.27H592.4l-0.039-43.28m6.734-3.98-4.254.01,0.042,47.24h4.254l-0.042-47.25m6.743,6.52-4.254.01,0.037,40.72,4.253-.01-0.036-40.72m6.751,14.48-4.254.01,0.023,26.23h4.254l-0.023-26.24m6.728-10.27h-4.254l0.033,36.51,4.253-.01-0.032-36.5m-181.927-.29a1.835,1.835,0,0,0-1.773,1.31l-6.327,20.72-6.693-4.87-11.082,10.64a1.663,1.663,0,0,0-.048,2.35,1.663,1.663,0,0,0,2.347.05l9.077-8.72,8.213,5.98,6.633-21.72,9.066,17.61,12.8-8.37,9.774,6.49,7.78-13.98a1.641,1.641,0,0,0,.147-1.26,1.657,1.657,0,0,0-.79-1,1.636,1.636,0,0,0-.807-0.21,1.669,1.669,0,0,0-1.45.85l-6.035,10.84-8.606-5.71-11.543,7.55-9.036-17.55a1.835,1.835,0,0,0-1.643-1m480.483-19.63-3.481.01,0.03,30.74,3.48-.01-0.029-30.74m6.453-8.1h-3.48l0.036,38.84h3.481l-0.037-38.84m6.475,14.84h-3.481l0.023,24,3.481-.01-0.023-23.99m6.433-29.36h-3.48l0.05,53.35h3.481l-0.051-53.35m6.467,6.04h-3.481l0.045,47.3h3.481l-0.045-47.3m6.472,11.9H946.7l0.034,35.4,3.48-.01-0.033-35.39m6.444-17.05h-3.48l0.05,52.44h3.48l-0.05-52.44m82.959,71.6-9.3,19.28-4.51-4.22-4.95,5.48-7.49-11.12-7.05,10.92c-2.02-1.71-4.76-3.95-5.65-4.21l-0.21-.05h-0.15a1.176,1.176,0,0,0-1.094.74,1.612,1.612,0,0,0,.252,1.64c1.682,1.72,6.272,6.34,6.272,6.34l0.88,0.88,6.81-10.61,7,10.31,5.55-6.15,5.25,4.91,8.68-18.01,10.96,18.05,6.71-5.65,7.12,7.59,0.29,0.07a2.15,2.15,0,0,0,.53.06,1.4,1.4,0,0,0,1.37-.82,1.52,1.52,0,0,0-.54-1.76l-8.52-9.17-6.23,5.24-11.98-19.74" transform="translate(-411 -778)"/>
</svg>
