<svg xmlns="http://www.w3.org/2000/svg" width="25" height="25" viewBox="0 0 25 25"><defs><style>.cls-1{fill:#fff;fill-rule:evenodd}</style></defs><path id="Call.svg" class="cls-1" d="M334.642 59.123h-.267-4.434a3.013 3.013.0 0 0-2.3.6 1.986 1.986.0 0 0-.548 1.413 8.34 8.34.0 0 1-7.226-7.225 1.984 1.984.0 0 0 1.414-.548 3.018 3.018.0 0 0 .6-2.3v-4.7a3.018 3.018.0 0 0-.6-2.3 2.008 2.008.0 0 0-1.485-.553h-4.167a3.128 3.128.0 0 0-3.125 3.125v4.166A17.727 17.727.0 0 0 330.208 68.5h4.167a3.128 3.128.0 0 0 3.125-3.124V61.208a2.007 2.007.0 0 0-.554-1.484A3.029 3.029.0 0 0 334.642 59.123zm.774 6.251a1.042 1.042.0 0 1-1.041 1.041h-4.167a15.64 15.64.0 0 1-15.624-15.623V46.626a1.042 1.042.0 0 1 1.041-1.041h4.148a6.839 6.839.0 0 1 .02.758v4.733a6.844 6.844.0 0 1-.02.758h-2.065v1.041a10.428 10.428.0 0 0 10.417 10.415h1.042V61.225a7.413 7.413.0 0 1 .757-.019h.284 4.451a7.514 7.514.0 0 1 .757.019v4.148z" transform="translate(-312.5 -43.5)"/></svg>