<svg xmlns="http://www.w3.org/2000/svg" width="19.97" height="14" viewBox="0 0 19.97 14">
  <defs>
    <style>
      .cls-1 {
        fill-rule: evenodd;
      }
    </style>
  </defs>
  <path id="morel.svg_" data-name="morel.svg " class="cls-1" d="M1750.34,394.764l5.98,5.9a1.1,1.1,0,0,0,.78.322,1.118,1.118,0,0,0,.79-0.322,1.1,1.1,0,0,0,0-1.553l-4.07-4.025,15.05,0a1.1,1.1,0,1,0,0-2.2l-15.05,0,4.07-4.026a1.1,1.1,0,0,0,0-1.553,1.118,1.118,0,0,0-1.57,0l-5.98,5.9A1.1,1.1,0,0,0,1750.34,394.764Z" transform="translate(-1750.03 -387)"/>
</svg>
