<svg xmlns="http://www.w3.org/2000/svg" width="38" height="50" viewBox="0 0 38 50">
  <defs>
    <style>
      .cls-1 {
        fill: #fff;
        fill-rule: evenodd;
      }
    </style>
  </defs>
  <path id="_2ico.svg" data-name="2ico.svg" class="cls-1" d="M1599.88,963.2a0.581,0.581,0,0,1-.45.685l-5.64,1.089a0.668,0.668,0,0,1-.11.01,0.573,0.573,0,0,1-.56-0.479,0.581,0.581,0,0,1,.45-0.685l5.64-1.089A0.576,0.576,0,0,1,1599.88,963.2Zm-6.65,8.089a0.585,0.585,0,0,1-.56-0.468,0.593,0.593,0,0,1,.45-0.694l10.25-2.178-1.32-6.767a6.685,6.685,0,0,0-2.22-3.807,5.145,5.145,0,0,0-2.12-1.154l-6.15-1.829a1.781,1.781,0,0,1-.53-0.256,1.9,1.9,0,0,1-.71-0.9l-4.22,3.876a0.556,0.556,0,0,1-.76,0l-4.22-3.876a1.966,1.966,0,0,1-.71.9,1.781,1.781,0,0,1-.53.256l-6.09,1.813a5.154,5.154,0,0,0-2.18,1.171,6.659,6.659,0,0,0-2.23,3.806l-1.31,6.767,9.11,1.937a0.593,0.593,0,0,1,.45.694,0.585,0.585,0,0,1-.56.468,0.611,0.611,0,0,1-.12-0.012l-10.23-2.174,1.54-7.91a7.849,7.849,0,0,1,2.62-4.482,6.23,6.23,0,0,1,2.63-1.4l6.05-1.8a0.6,0.6,0,0,0,.21-0.1,0.743,0.743,0,0,0,.33-0.554l0.24-2.158a11.411,11.411,0,0,1-3.43-5.525,3.4,3.4,0,0,1-2.04-3.419,3.624,3.624,0,0,1,1.63-3.251c0.01-1.3.27-5.323,2.8-8.041a9.332,9.332,0,0,1,12.83,0c2.5,2.7,2.75,6.694,2.76,8.012a3.58,3.58,0,0,1,1.68,3.279,3.4,3.4,0,0,1-2.04,3.421,11.415,11.415,0,0,1-3.44,5.523l0.18,1.555v0.024l0.07,0.578a0.743,0.743,0,0,0,.33.555,0.6,0.6,0,0,0,.21.1l6.11,1.82a6.218,6.218,0,0,1,2.57,1.385,7.884,7.884,0,0,1,2.62,4.483l1.54,7.91-11.37,2.415A0.611,0.611,0,0,1,1593.23,971.286Zm-1.94-40.269a8.216,8.216,0,0,0-11.16,0,7.71,7.71,0,0,0-.78,1,5.48,5.48,0,0,1,4.22.491c0.37,0.172.73,0.35,1.08,0.526a11.62,11.62,0,0,0,3.91,1.4,8.212,8.212,0,0,0,4.41-.588A8.449,8.449,0,0,0,1591.29,931.017Zm2.03,3.96a8.827,8.827,0,0,1-3.55.708,11.8,11.8,0,0,1-1.33-.078,12.664,12.664,0,0,1-4.29-1.511c-0.35-.172-0.69-0.346-1.05-0.513a4.432,4.432,0,0,0-3.38-.449,2.713,2.713,0,0,0-1.46,1.258,14.533,14.533,0,0,0-.61,3.517l1.13,0.515a1.06,1.06,0,0,1,1-.727h3.83a1.079,1.079,0,0,1,1.06,1.089v0.073h2.1v-0.073a1.073,1.073,0,0,1,1.06-1.089h3.83a1.069,1.069,0,0,1,1,.72l1.08-.506A14.877,14.877,0,0,0,1593.32,934.977Zm-13.46,3.895v1.984h3.66v-1.984h-3.66Zm8.05,0v1.984h3.66v-1.984h-3.66Zm5.6,5.4,0.11-.4,0.4-.037c0.79-.071,1.41-1.094,1.41-2.328a2.259,2.259,0,0,0-1.26-2.305,0.6,0.6,0,0,1-.2-0.1l-1.25.584v1.264a1.079,1.079,0,0,1-1.06,1.089h-3.83a1.073,1.073,0,0,1-1.06-1.089v-0.908h-2.1v0.908a1.079,1.079,0,0,1-1.06,1.089h-3.83a1.073,1.073,0,0,1-1.06-1.089v-1.26l-1.28-.586a0.035,0.035,0,0,0-.02.017c-0.01,0-.01,0-0.01.007s-0.03.016-.04,0.024-0.01,0-.01.008a0.124,0.124,0,0,1-.04.019,0.07,0.07,0,0,1-.01.008c-0.01,0-.03.01-0.04,0.014a0.031,0.031,0,0,1-.02.008,0.167,0.167,0,0,1-.02.008,2.308,2.308,0,0,0-1.22,2.294c0,1.232.62,2.255,1.41,2.329l0.4,0.037,0.1,0.4a10.207,10.207,0,0,0,3.38,5.462l0.25,0.2-0.21,1.925,4.38,4.023,4.38-4.022-0.22-1.926,0.25-.2A10.137,10.137,0,0,0,1593.51,944.267Zm-9.77,14.938-1.17-1.167a0.6,0.6,0,0,1-.01-0.83,0.563,0.563,0,0,1,.81-0.009l1.39,1.393s0.01,0,.01.006l0.95,0.955,0.95-.956s0,0,.01,0l1.38-1.394a0.563,0.563,0,0,1,.81.009,0.6,0.6,0,0,1-.01.83l-1.16,1.167,2.66,13.53a0.578,0.578,0,0,1-.16.529l-4.07,4.217-0.01,0v0a0.034,0.034,0,0,1-.02.019c-0.01.007-.01,0.014-0.02,0.02s-0.01.01-.02,0.015l-0.03.02s-0.01.007-.01,0.011a0.2,0.2,0,0,0-.04.018s-0.01.006-.01,0.009-0.03.011-.04,0.015a0.038,0.038,0,0,1-.02.008l-0.03.011a0.067,0.067,0,0,0-.02.006,0.339,0.339,0,0,1-.07.012,0.049,0.049,0,0,1-.02,0,0.316,0.316,0,0,1-.05,0l-0.06,0a0.032,0.032,0,0,1-.02,0l-0.03,0-0.04-.009a0.042,0.042,0,0,1-.01,0,0.138,0.138,0,0,1-.04-0.014,0.146,0.146,0,0,1-.02,0l-0.03-.017-0.02-.007-0.03-.02c-0.01,0-.01-0.006-0.02-0.009s-0.01-.014-0.02-0.021a0.034,0.034,0,0,1-.02-0.014,0.038,0.038,0,0,1-.02-0.02,0.034,0.034,0,0,1-.02-0.019s-0.01,0-.01,0v0l-4.08-4.217a0.6,0.6,0,0,1-.15-0.529Zm1.98,17.029,3.45-3.574-2.44-12.475-0.61.61a0.567,0.567,0,0,1-.4.168,0.551,0.551,0,0,1-.4-0.168l-0.61-.61-2.45,12.475Z" transform="translate(-1566.72 -927.656)"/>
</svg>
