<svg xmlns="http://www.w3.org/2000/svg" width="43" height="50" viewBox="0 0 43 50">
  <defs>
    <style>
      .cls-1 {
        fill: #fff;
        fill-rule: evenodd;
      }
    </style>
  </defs>
  <path id="_3ico.svg" data-name="3ico.svg" class="cls-1" d="M1658.06,986.221a2.282,2.282,0,0,1-2.28-2.282,2.252,2.252,0,0,1,.33-1.178l-1.78-1.877a2.279,2.279,0,0,1-2.15,0l-1.78,1.876a2.248,2.248,0,0,1,.33,1.176,2.28,2.28,0,1,1-4.23-1.18l-2.31-2.431a0.607,0.607,0,1,1,.88-0.835l2.31,2.431a2.266,2.266,0,0,1,2.14,0l1.78-1.874a2.28,2.28,0,1,1,4.23-1.181,2.333,2.333,0,0,1-.32,1.175l1.78,1.879a2.24,2.24,0,0,1,1.07-.269A2.282,2.282,0,0,1,1658.06,986.221Zm-9.61-3.35a1.068,1.068,0,1,0,1.07,1.068A1.07,1.07,0,0,0,1648.45,982.871Zm4.8-5.067a1.068,1.068,0,1,0,1.07,1.068A1.07,1.07,0,0,0,1653.25,977.8Zm4.81,5.067a1.068,1.068,0,1,0,1.07,1.068A1.07,1.07,0,0,0,1658.06,982.871Zm-16.6-8.458a1.9,1.9,0,0,1,1.51,1.854v13.59a1.9,1.9,0,0,1-1.89,1.892h-4.47a1.888,1.888,0,0,1-1.89-1.892v-13.59a1.886,1.886,0,0,1,1.51-1.854v-4.079a14.405,14.405,0,1,1,5.23,0v4.079Zm-5.53,1.854v13.59a0.677,0.677,0,0,0,.68.678h4.47a0.684,0.684,0,0,0,.68-0.678v-13.59a0.683,0.683,0,0,0-.68-0.678h-4.47A0.676,0.676,0,0,0,1635.93,976.267Zm4.32-1.893v-3.869c-0.46.045-.93,0.069-1.41,0.069s-0.94-.024-1.4-0.069v3.869h2.81Zm11.78-18.212a13.19,13.19,0,1,0-13.19,13.2A13.2,13.2,0,0,0,1652.03,956.162Zm-20.49,5.573a0.607,0.607,0,0,1-.61-0.607v-6.582a0.606,0.606,0,0,1,.61-0.607h4.26V951.2a0.606,0.606,0,0,1,.61-0.607h4.87a0.612,0.612,0,0,1,.61.607v2.742h4.26a0.612,0.612,0,0,1,.61.607v6.582a0.613,0.613,0,0,1-.61.607h-14.61Zm4.26-6.582h-3.65v5.368h3.65v-5.368Zm6.09,5.368h3.65v-5.368h-3.65v5.368Zm-4.87-5.975v5.975h3.65V951.8h-3.65v2.742Zm1.82-8.741a0.607,0.607,0,0,1,0-1.214,11.584,11.584,0,0,1,11.57,11.571,0.605,0.605,0,1,1-1.21,0A10.372,10.372,0,0,0,1638.84,945.805Zm-12.12,33.067a2.263,2.263,0,0,1-.33,1.181l1.77,1.874a2.281,2.281,0,0,1,1.08-.27,2.251,2.251,0,0,1,1.07.268l2.3-2.432a0.609,0.609,0,0,1,.86-0.023,0.6,0.6,0,0,1,.03.858l-2.31,2.432a2.256,2.256,0,0,1,.33,1.179,2.28,2.28,0,1,1-4.56,0,2.33,2.33,0,0,1,.32-1.175l-1.77-1.877a2.279,2.279,0,0,1-2.15,0l-1.78,1.877a2.252,2.252,0,0,1,.33,1.178,2.286,2.286,0,1,1-1.21-2.013l1.78-1.879a2.244,2.244,0,0,1-.33-1.175A2.285,2.285,0,0,1,1626.72,978.872Zm2.52,6.135a1.068,1.068,0,1,0-1.07-1.068A1.07,1.07,0,0,0,1629.24,985.007Zm-9.61-2.136a1.068,1.068,0,1,0,1.06,1.068A1.07,1.07,0,0,0,1619.63,982.871Zm4.81-5.067a1.068,1.068,0,1,0,1.06,1.068A1.07,1.07,0,0,0,1624.44,977.8Z" transform="translate(-1617.34 -941.75)"/>
</svg>
