<svg xmlns="http://www.w3.org/2000/svg" width="54" height="50" viewBox="0 0 54 50" id="svg-1"><defs id="defs-2"><style id="style-3">
	.cls-1 { fill-rule: evenodd; }
</style></defs><path id="pre1.svg" class="cls-1" d="M806 284c-13.089.0-27 3.388-27 9.667v2.666c0 6.279 13.911 9.667 27 9.667s27-3.388 27-9.667v-2.666C833 287.388 819.089 284 806 284zm24.667 12.333c0 1.676-2.529 3.509-6.765 4.9a67.1 67.1.0 0 1-35.8.0c-4.236-1.393-6.765-3.226-6.765-4.9v-2.666c0-1.676 2.529-3.509 6.765-4.9a67.1 67.1.0 0 1 35.8.0c4.236 1.393 6.765 3.226 6.765 4.9v2.666zm-6.756 12.2a59.492 59.492.0 0 1-17.89 2.437c-14.456.0-24.354-3.818-24.688-7.276v-.03l-2.27.007.1 7c0 6.278 13.868 9.666 26.916 9.666S833 316.945 833 310.667v-7.081h-2.333C830.667 305.253 828.122 307.138 823.911 308.529zm6.756 2.138c0 1.678-2.514 3.511-6.725 4.9a66.815 66.815.0 0 1-35.718.0c-4.21-1.391-6.724-3.224-6.724-4.909l-.017-2.851c4.514 3.613 14.8 5.524 24.6 5.524s20.091-1.916 24.584-5.537v2.871zM823.911 322.2a59.492 59.492.0 0 1-17.89 2.437c-14.456.0-24.354-3.818-24.688-7.276v-.03l-2.27.006.1 7c0 6.279 13.868 9.667 26.916 9.667S833 330.612 833 324.333v-7.08h-2.333C830.667 318.919 828.122 320.8 823.911 322.2zm6.756 2.137c0 1.679-2.514 3.511-6.725 4.9a66.815 66.815.0 0 1-35.718.0c-4.21-1.392-6.724-3.224-6.724-4.909l-.017-2.852c4.514 3.613 14.8 5.525 24.6 5.525s20.091-1.916 24.584-5.537v2.87z" transform="translate(-779 -284)" fill="#163655" fill-opacity="1" type="solidColor"></path></svg>