<svg xmlns="http://www.w3.org/2000/svg" width="51" height="50" viewBox="0 0 51 50" id="svg-1"><defs id="defs-2"><style id="style-3">
	.cls-1 { fill-rule: evenodd; }
</style></defs><path id="pre3.svg" class="cls-1" d="M834.281 371.128h-8v19.833h8V371.128zm-1.93 17.878h-4.135V373.084h4.135v15.922zm-16.816-15.084h-7.994v17.039h7.994V373.922zm-1.93 15.084H809.47V375.877h4.135v13.129zm11.579-21.788h-8.27v23.743h8.27V367.218zm-1.93 21.788h-4.411V369.173h4.411v19.833zm-16.54-8.939h-8v10.894h8V380.067zm-1.93 8.939h-4.135v-6.984h4.135v6.984zM791 358v5.307h2.757v33.24h13.86L799.331 408h2.728l8.258-11.453h11.241L830.088 408h2.728l-8.558-11.453h15.261v-33.24H842V358H791zm46.589 36.592h-41.9V363.307h41.9v31.285zm2.481-33.24H792.93v-1.4h47.14v1.4z" transform="translate(-791 -358)" fill="#163655" fill-opacity="1" type="solidColor"></path></svg>